<?xml version="1.0" encoding="UTF-8"?>
<!DOCTYPE svg PUBLIC "-//W3C//DTD SVG 1.1//EN" "http://www.w3.org/Graphics/SVG/1.1/DTD/svg11.dtd">
<!-- Creator: CorelDRAW -->
<svg xmlns="http://www.w3.org/2000/svg" xml:space="preserve" width="15cm" height="3.01827cm" version="1.1" style="shape-rendering:geometricPrecision; text-rendering:geometricPrecision; image-rendering:optimizeQuality; fill-rule:evenodd; clip-rule:evenodd"
viewBox="0 0 14991.09 3016.48"
 xmlns:xlink="http://www.w3.org/1999/xlink"
 xmlns:xodm="http://www.corel.com/coreldraw/odm/2003">
 <defs>
  <style type="text/css">
   <![CDATA[
    .fil0 {fill:white}
   ]]>
  </style>
 </defs>
 <g id="Camada_x0020_1">
  <metadata id="CorelCorpID_0Corel-Layer"/>
  <g id="_2110404976144">
   <path class="fil0" d="M2743.22 1157.92l92.93 0c114.77,0 193.4,-12.71 236.3,-37.73 42.5,-25.41 63.94,-69.1 63.94,-131.05 0,-64.33 -19.86,-109.22 -59.96,-135.43 -39.72,-25.81 -117.55,-38.91 -233.12,-38.91l-100.08 0 0 343.13zm4534.92 500c624.12,823.82 1755.41,1375.99 3170,1358.13 767,-9.68 1749.41,-211.02 2644.53,-760.96l-307.74 0c-823.78,402.63 -1674.43,523.33 -2349.29,506.49 -900.85,-22.48 -2121.73,-302.81 -2742.31,-1193.35l526.03 -562.8 -514.29 0 -426.93 513.1 0 -1142.16 -407.46 0 0 1803.79 407.46 0 0 -522.23zm6014.93 467.07c69.92,-47.92 139.18,-97.97 207.55,-150.51l0 -152.17c-68.58,50.42 -137.81,98.32 -207.55,143.95l0 158.73zm764.88 -655.62c29.42,-31.39 58.55,-63.39 87.39,-95.93l-87.39 0 0 95.93zm207.31 -236.51c279.43,-341.61 526.68,-742.48 725.84,-1210.85 -212.53,423.02 -458.12,784.95 -725.84,1093.66l0 117.19zm-11953.33 947.29l0 -1703.72 467.43 0c192.22,0 326.45,6.35 403.1,18.66 76.25,12.32 141.77,33.76 196.98,63.94 62.75,34.95 110.8,81.81 143.77,140.18 32.96,58.78 49.24,126.29 49.24,203.34 0,96.9 -24.63,173.94 -73.87,231.13 -49.24,56.79 -127.87,100.08 -235.9,129.87 120.73,9.13 215.64,51.63 283.56,127.08 68.31,75.86 102.45,176.73 102.45,303.42 0,90.54 -19.06,170.36 -57.58,239.47 -38.13,69.1 -93.33,122.71 -164.42,160.44 -57.98,30.98 -129.86,53.22 -214.85,66.32 -85.38,13.11 -224.78,19.86 -418.59,19.86l-481.33 0zm431.29 -347.89l162.83 0c110,0 187.85,-13.91 233.51,-41.31 45.67,-27.8 68.31,-73.87 68.31,-138.2 0,-71.49 -21.04,-121.13 -62.75,-149.72 -41.7,-28.2 -119.14,-42.5 -231.93,-42.5l-169.97 0 0 371.73zm1990.06 -236.7c0,-87.37 -22.24,-156.47 -66.32,-206.91 -44.09,-50.44 -104.05,-75.85 -179.11,-75.85 -75.86,0 -135.82,25.41 -179.91,75.85 -43.68,50.44 -65.53,119.54 -65.53,206.91 0,87.77 21.84,156.87 65.13,206.91 43.29,50.04 103.65,75.06 180.3,75.06 75.85,0 135.82,-25.02 179.91,-75.06 43.68,-50.04 65.53,-119.14 65.53,-206.91zm412.23 0c0,84.59 -16.68,165.21 -49.64,241.06 -32.96,76.25 -80.62,144.56 -143.77,204.92 -63.54,60.37 -134.63,106.43 -213.27,137.41 -79.03,30.98 -162.43,46.47 -250.99,46.47 -90.15,0 -174.34,-15.5 -252.97,-46.47 -79.03,-30.98 -149.33,-77.04 -211.28,-137.41 -62.36,-59.17 -109.61,-126.68 -142.18,-202.94 -32.56,-76.64 -48.85,-157.67 -48.85,-243.05 0,-85.77 16.28,-166.8 48.45,-243.05 32.17,-75.85 79.43,-144.16 142.57,-204.92 61.16,-59.57 131.05,-104.85 210.09,-135.03 78.63,-30.18 163.22,-45.27 254.17,-45.27 90.95,0 175.54,15.09 253.77,45.27 78.24,30.19 148.53,75.46 210.49,135.03 63.94,61.55 112,130.26 144.55,206.11 32.57,75.86 48.85,156.87 48.85,241.86zm1072.27 0c0,-87.37 -22.24,-156.47 -66.32,-206.91 -44.08,-50.44 -104.05,-75.85 -179.11,-75.85 -75.85,0 -135.82,25.41 -179.9,75.85 -43.69,50.44 -65.53,119.54 -65.53,206.91 0,87.77 21.84,156.87 65.13,206.91 43.28,50.04 103.65,75.06 180.3,75.06 75.86,0 135.82,-25.02 179.91,-75.06 43.69,-50.04 65.53,-119.14 65.53,-206.91zm412.23 0c0,84.59 -16.68,165.21 -49.64,241.06 -32.96,76.25 -80.62,144.56 -143.76,204.92 -63.55,60.37 -134.64,106.43 -213.27,137.41 -79.03,30.98 -162.43,46.47 -251,46.47 -90.14,0 -174.34,-15.5 -252.97,-46.47 -79.03,-30.98 -149.32,-77.04 -211.28,-137.41 -62.35,-59.17 -109.61,-126.68 -142.17,-202.94 -32.56,-76.64 -48.85,-157.67 -48.85,-243.05 0,-85.77 16.29,-166.8 48.46,-243.05 32.17,-75.85 79.42,-144.16 142.57,-204.92 61.16,-59.57 131.06,-104.85 210.09,-135.03 78.64,-30.18 163.23,-45.27 254.17,-45.27 90.95,0 175.54,15.09 253.78,45.27 78.23,30.19 148.53,75.46 210.49,135.03 63.94,61.55 111.99,130.26 144.55,206.11 32.56,75.86 48.85,156.87 48.85,241.86zm1870.52 34.15c69.11,78.24 137.01,136.62 204.13,175.54 67.12,38.52 133.84,57.98 200.56,57.98 61.95,0 113.18,-16.68 152.9,-50.04 40.11,-33.36 59.97,-75.46 59.97,-126.69 0,-56.4 -17.08,-100.08 -51.64,-130.66 -34.54,-30.58 -112.39,-62.36 -233.91,-94.92 -166.8,-44.87 -285.14,-103.65 -354.24,-175.54 -69.1,-72.27 -103.65,-171.17 -103.65,-296.66 0,-163.23 54.4,-295.87 163.62,-398.73 108.82,-102.86 250.6,-154.09 424.15,-154.09 94.12,0 183.08,12.71 267.27,37.73 84.19,25.41 164.01,63.54 239.47,114.77l-145.75 333.59c-52.82,-44.87 -106.83,-78.63 -162.43,-101.67 -55.2,-22.63 -110.01,-34.15 -164.41,-34.15 -55.6,0 -100.88,13.51 -135.82,40.11 -34.95,26.61 -52.43,61.16 -52.43,102.86 0,42.49 15.1,76.65 45.68,102.46 30.58,25.42 89.75,50.04 177.13,73.08l21.04 5.95c189.44,51.24 314.14,107.23 373.71,168.79 40.5,41.7 71.08,92.13 92.13,150.51 21.05,58.78 31.37,123.51 31.37,194.99 0,180.7 -59.17,326.06 -177.91,435.66 -118.74,110.01 -277.2,164.82 -474.98,164.82 -118.74,0 -226.76,-20.26 -324.46,-60.37 -97.3,-40.5 -191.02,-103.65 -280.77,-189.83l209.29 -345.51zm1279.98 550.43l0 -1803.79 407.46 0 0 633.03c0,41.7 -1.19,80.62 -3.58,116.37 -2.38,35.74 -5.55,67.91 -10.32,96.5 52.03,-87.77 113.18,-152.1 183.48,-193.41 70.69,-40.9 154.88,-61.55 252.19,-61.55 76.25,0 143.77,12.31 202.94,36.54 59.17,24.62 107.63,59.57 144.55,105.64 31.38,39.31 53.22,87.77 66.33,144.16 13.1,56.79 19.86,141.38 19.86,253.78l0 672.75 -414.61 0 0 -629.46c0,-94.13 -15.49,-162.04 -46.07,-204.92 -30.58,-42.5 -79.42,-63.94 -146.94,-63.94 -86.18,0 -148.92,31.78 -188.64,95.32 -39.32,63.54 -59.18,166.8 -59.18,309.77l0 493.24 -407.46 0zm2365.76 -738.68c-7.95,-66.72 -33.37,-120.33 -76.25,-160.84 -43.29,-40.5 -96.1,-60.76 -159.25,-60.76 -67.51,0 -121.52,18.27 -161.63,55.2 -39.72,36.93 -66.32,92.54 -79.83,166.4l476.97 0zm407.46 233.52l-893.56 0c0.79,90.54 24.22,160.44 69.9,209.69 46.07,49.24 110.8,73.86 194.59,73.86 63.14,0 115.96,-11.91 159.25,-35.35 42.89,-23.82 75.86,-58.78 98.49,-105.24l311.75 125.5c-37.33,90.15 -103.26,159.65 -197.77,208.5 -94.92,48.85 -210.88,73.47 -348.29,73.47 -204.92,0 -369.34,-56.79 -492.85,-170.37 -123.91,-113.98 -185.87,-263.7 -185.87,-449.96 0,-183.09 61.96,-335.19 185.47,-456.32 123.9,-121.13 280.37,-181.49 469.41,-181.49 194.6,0 348.29,61.16 460.68,183.87 112.39,122.72 168.79,290.7 168.79,503.97l0 19.86zm249.8 505.16l0 -1803.79 414.61 0 0 1803.79 -414.61 0zm772.04 0l0 -881.64 -176.73 0 0 -293.09 176.73 0 0 -241.06c0,-136.62 37.33,-239.47 111.6,-308.18 74.66,-69.1 186.26,-103.65 334.39,-103.65 21.05,0 46.07,1.99 75.06,5.95 28.99,3.58 60.36,9.14 93.72,15.88l0 316.52c-18.66,-7.15 -35.74,-12.71 -51.62,-16.28 -16.29,-3.58 -30.59,-5.17 -43.69,-5.17 -38.92,0 -67.51,11.52 -85.38,34.95 -17.87,23.43 -26.6,61.16 -26.6,113.59l0 187.45 207.3 0 0 293.09 -207.3 0 0 881.64 -407.47 0z"/>
   <path class="fil0" d="M502 50.96c7.2,-4.83 15.77,-7.08 24.42,-6.39 21.09,1.65 37.05,20.29 35.36,41.4l-24.49 305.96 0 1940.51c0,15.9 -9.77,30.14 -24.51,35.89 -163.65,75.17 -327.27,79.9 -489.84,-0.67 -13.81,-5.97 -22.93,-19.84 -22.93,-35.22l0 -1941.74c0,-4.16 0.7,-8.29 1.93,-11.96l90 -320.77 1.1 -3.07 0.11 -0.18c1.99,-4.99 5.37,-9.82 9.81,-13.81l0.19 -0.16 0.27 -0.27 1.19 -0.96 1.23 -0.95 1.49 -1.04c0.66,-0.43 1.19,-0.76 1.66,-1.03l1.59 -0.9 1.63 -0.81 1.56 -0.7c6.94,-2.88 14.43,-3.68 21.53,-2.38l2.86 0.61 1.81 0.52 1.99 0.67 1.14 0.44c2.63,1.06 5.19,2.45 7.44,4.03 27.86,18.44 58.16,33.28 89.94,43.28 0.84,0.22 1.9,0.55 2.72,0.85 22.12,6.78 45.16,11.27 68.14,13.14 1.09,0.01 2.52,0.12 3.61,0.27 3.61,0.26 7.54,0.46 11.48,0.6 22.1,0.75 44.27,-0.85 65.79,-4.67 0.67,-0.16 1.61,-0.33 2.29,-0.41 37.76,-6.93 74.04,-20.74 107.48,-40.08zm719.97 2335.77c-95.33,35.4 -194.77,56.3 -296.67,57.03 -103.02,0.73 -202.79,-19.24 -298.37,-57.43 -15.77,-5.17 -26.51,-19.93 -26.51,-36.61l0 -1986.86c0.05,-2.21 0.24,-4.27 0.58,-6.32l54.03 -316.93c3.57,-20.94 23.46,-35.03 44.39,-31.46 4.58,0.79 8.98,2.38 12.79,4.63 65.63,35.08 138.13,52.27 212.66,51.24l4.7 -0.07c34.14,-0.67 68.26,-5.01 101.43,-12.35 0.79,-0.22 1.86,-0.46 2.71,-0.61 43.79,-9.9 86.61,-25.1 127.35,-44.45l2.57 -1.12 0.71 -0.28c6.8,-2.51 14.06,-3.08 21.07,-1.66 0.6,0.12 1.2,0.26 1.86,0.43l1.68 0.46c10.44,3.11 18.97,10.53 23.65,20.48l0.18 0.38c1.9,4.23 3.07,8.74 3.36,13.16l33.4 320.7c0.13,1.3 0.2,2.62 0.2,3.93l0.07 1986.71c0,17.17 -11.38,32.28 -27.85,37.01zm817.3 -337.5c6.33,10.11 7.56,22.56 3.51,33.64l20.67 198.46c1.67,16.09 -6.96,31.49 -21.45,38.52 -77.74,43.56 -161.44,73.85 -250.31,83.77 -90.17,10.05 -179.44,-1.8 -264.8,-31.28 -14.66,-4.32 -25.48,-17.26 -27.13,-32.74l-166.91 -1568.61c-1.51,-4.84 -2.06,-9.93 -1.6,-14.98l-15.91 -149.52c-0.88,-3.49 -1.27,-7.11 -1.15,-10.7l-19.91 -187.21 0.04 -0.16 -0.01 -0.23c-0.05,-0.83 -0.08,-1.48 -0.1,-2.21l-4.39 -319.52c-0.56,-6.89 0.73,-13.79 3.76,-20.02 9.3,-19.09 32.38,-27.07 51.47,-17.74 55.83,27.26 117.11,39.08 178.97,31.87 60.3,-7.02 117.72,-31.82 163.99,-71.42l2.47 -1.93 0.67 -0.47c5.37,-3.69 11.57,-5.94 18.05,-6.55l1.95 -0.14 1.96 -0.04 1.75 0.05 1.83 0.13 1.94 0.25 1.69 0.29c7.71,1.53 14.68,5.31 20.16,10.97l1.13 1.21 0.11 0.15 0.56 0.63 1.17 1.45 1.25 1.76c1.94,2.81 3.58,6.12 4.65,9.42l109.18 301.99c1.51,3.64 2.47,7.76 2.71,11.72l19.71 189.17c0.11,0.79 0.22,1.78 0.25,2.53l16.64 159.8c0.12,0.81 0.23,1.84 0.28,2.64l125.36 1203.79c0.12,0.79 0.22,1.81 0.26,2.56l15.49 148.7zm-1680.02 -1876.72c-5.29,0.3 -10.59,0.49 -15.89,0.58l-30.1 206.27c-1.67,11.48 -8.26,21.08 -17.32,26.91 25.64,-1.81 51.26,-5.8 76.89,-11.89 -14.73,-6.05 -24.82,-20.98 -23.88,-37.71l10.31 -184.16zm-103.16 234.79c-13.29,-7.6 -21.32,-22.78 -18.97,-38.85l29.43 -201.7c-2.77,-0.5 -5.52,-1.03 -8.28,-1.59l-52.08 206.53c-3.42,13.57 -13.77,23.68 -26.33,27.47 25.42,4.99 50.83,7.67 76.24,8.15zm-113.78 -17.17c-9.65,-9.26 -14.24,-23.31 -10.75,-37.15l53.01 -210.26c-11,-4.5 -21.81,-9.46 -32.39,-14.86l-67.79 241.66c19.31,8.25 38.62,15.1 57.92,20.61zm276.08 -8.76c14.62,-4.87 29.23,-10.4 43.85,-16.57l17.47 -218.3c-13.99,5.36 -28.27,9.96 -42.77,13.76l-11.22 200.65c-0.43,7.65 -3.1,14.67 -7.33,20.46zm-341.37 68.18l0 163.31c127.67,56.82 255.21,52.89 383.24,-0.67l0 -163.93c-127.71,46.78 -255.61,49.74 -383.24,1.29zm0 246.56l0 1365.75c127.67,56.82 255.21,52.89 383.24,-0.67l0 -1366.36c-127.71,46.77 -255.61,49.73 -383.24,1.28zm203.94 570.19c76.13,0 137.84,61.72 137.84,137.84 0,76.12 -61.73,137.84 -137.84,137.84 -76.12,0 -137.84,-61.72 -137.84,-137.84 0,-76.12 61.72,-137.84 137.84,-137.84zm-203.94 878.81l0 162.94c127.67,56.82 255.21,52.89 383.24,-0.67l0 -163.56c-127.71,46.77 -255.61,49.73 -383.24,1.28zm600.42 -1626.63c79.71,29.09 162.46,44.21 247.49,43.61 84.78,-0.6 167.86,-16.79 247.87,-44.21l0 -101.01c-80.29,25.14 -163.17,39.58 -247.49,40.18 -84.68,0.6 -167.61,-12.79 -247.86,-39.07l0 100.5zm495.36 80.23c-80.29,25.15 -163.16,39.57 -247.49,40.18 -84.68,0.61 -167.61,-12.79 -247.86,-39.07l0 73.82c79.71,29.09 162.46,44.21 247.49,43.61 84.78,-0.6 167.86,-16.79 247.87,-44.21l0 -74.33zm-495.36 1266.01c79.71,29.09 162.46,44.21 247.49,43.61 84.78,-0.6 167.86,-16.79 247.87,-44.21l0 -1110.25c-80.29,25.15 -163.16,39.58 -247.49,40.18 -84.68,0.6 -167.61,-12.79 -247.86,-39.07l0 1109.74zm117.68 -988.06l260 0 0 907.87 -260 0 0 -907.87zm377.68 1068.3c-80.29,25.15 -163.16,39.58 -247.49,40.19 -84.68,0.61 -167.61,-12.8 -247.86,-39.07l0 64.75c79.71,29.09 162.46,44.21 247.49,43.61 84.78,-0.6 167.86,-16.79 247.87,-44.21l0 -65.26zm0 146.1c-80.29,25.15 -163.16,39.58 -247.49,40.18 -84.68,0.6 -167.61,-12.79 -247.86,-39.07l0 64.75c79.71,29.09 162.46,44.21 247.49,43.61 84.78,-0.6 167.86,-16.79 247.87,-44.22l0 -65.26zm-165.69 -1956.89c-13.12,1.99 -26.31,3.55 -39.53,4.67l-3.75 198.26c-0.4,21.17 -17.8,38.1 -39,37.77 -21.21,-0.33 -38.2,-17.82 -37.8,-39.04l3.7 -195.74c-12.49,-0.67 -24.95,-1.76 -37.35,-3.31l-29.01 185.27c-3.28,20.93 -22.87,35.3 -43.82,32.05 -20.95,-3.24 -35.37,-22.89 -32.08,-43.85l29.54 -188.6c-18.91,-5.31 -37.48,-11.71 -55.64,-19.17l-40.2 235.85c78.28,27.98 159.44,42.5 242.76,41.91 83.77,-0.6 165.89,-16.41 245.03,-43.25l-24.99 -239.89c-20.42,7.89 -41.21,14.84 -62.29,20.74l21.21 193.56c2.31,21.06 -13.13,40.1 -34.18,42.33 -21.04,2.23 -39.99,-13.13 -42.29,-34.14l-20.32 -185.43zm-329.66 2104.1l0 85.07c79.71,29.09 162.46,44.22 247.49,43.61 84.78,-0.61 167.86,-16.79 247.87,-44.21l0 -85.58c-80.29,25.15 -163.16,39.58 -247.49,40.18 -84.68,0.6 -167.61,-12.79 -247.86,-39.07zm690.86 -2030.87c3.28,-19.05 20.6,-33.09 40.31,-31.85 48.7,3.06 98.39,2.09 146.71,-5.14 36.54,-5.46 76.82,-15.09 109.9,-32 15.85,-8.1 34.69,-4.12 46.04,8.52l-17.02 -47.06c-48.73,30.86 -104.04,50.44 -161.42,57.13 -55.68,6.48 -112.16,0.57 -165.43,-16.51l0.91 66.91zm0.19 14.07l0.94 68.49c5.44,-15.88 20.97,-26.98 38.51,-25.98 53.6,3.06 108.23,2.14 161.47,-5.15 40.32,-5.52 84.65,-15.24 121.69,-32.58 19.18,-8.98 42.09,-0.67 51.07,18.52 8.97,19.18 0.65,42.07 -18.52,51.05 -44.22,20.71 -95.76,32.58 -143.93,39.18 -58.07,7.96 -117.56,9.09 -176.02,5.75 -15.68,-0.9 -28.71,-11.15 -33.91,-25.02l0.81 58.81c76.43,15.82 155.52,22.02 233.01,10.64 61.34,-9.01 118.65,-28.73 172.43,-59.06l-54.99 -152.07c-0.52,13.43 -8.08,26.19 -20.89,32.74 -40.75,20.82 -88.59,33.03 -133.64,39.77 -53.61,8.01 -108.68,9.15 -162.73,5.76 -17.69,-1.11 -31.93,-14.21 -35.29,-30.84zm37.14 506.81c77,16.11 156.74,22.5 234.85,11.03 63.75,-9.36 123.06,-30.29 178.56,-62.57l-8.28 -79.57c-55.49,28.17 -114.18,46.78 -176.04,55.86 -79.15,11.63 -159.43,7.1 -237.87,-7.3l8.79 82.55zm422.03 31.3c-55.48,28.17 -114.18,46.78 -176.04,55.86 -79.03,11.61 -159.16,7.12 -237.49,-7.23l119.93 1127.1c76.62,16.09 155.99,22.53 233.7,10.77 63.31,-9.58 121.87,-30.83 176.9,-62.98l-117 -1123.53zm-439.32 -193.78c77.12,16.15 156.98,22.59 235.22,11.09 63.75,-9.37 123.06,-30.29 178.57,-62.57l-11.33 -108.87c-55.48,28.17 -114.18,46.78 -176.04,55.87 -79.3,11.66 -159.73,7.08 -238.31,-7.38l11.9 111.86zm163.34 1535.06c77.27,16.23 157.28,22.71 235.67,11.2 62.27,-9.15 120.39,-29.34 174.86,-60.44l-8.91 -85.58c-54.9,28.09 -112.78,46.9 -174.08,56.17 -78.76,11.92 -158.58,7.41 -236.65,-6.95l9.11 85.6zm419.14 33.35c-54.42,27.14 -111.89,45.11 -172.32,53.98 -79.3,11.65 -159.73,7.08 -238.31,-7.38l13.4 125.9c68.19,20.66 138.59,28.37 209.63,20.44 70.83,-7.89 138.08,-30.65 201.09,-63.38l-13.49 -129.55z"/>
   <path class="fil0" d="M-0 2540.27l8073.8 0c-44.35,-24.09 -87.88,-48.97 -130.6,-74.63l-7943.2 0 0 74.63z"/>
  </g>
 </g>
</svg>
